<?xml version="1.0" encoding="UTF-8"?>
<svg xmlns="http://www.w3.org/2000/svg" xmlns:xlink="http://www.w3.org/1999/xlink" width="512pt" height="302pt" viewBox="0 0 512 302" version="1.1">
<g id="surface1">
<rect x="0" y="0" width="512" height="302" style="fill:rgb(100%,100%,100%);fill-opacity:1;stroke:none;"/>
<path style="fill:none;stroke-width:2.5;stroke-linecap:round;stroke-linejoin:round;stroke:rgb(0%,0%,0%);stroke-opacity:1;stroke-miterlimit:10;" d="M 16 46 L 16 16 L 76 16 M 76 46 L 46 46 M 76 16 L 136 16 M 136 46 L 106 46 M 136 16 L 166 16 M 166 46 L 136 46 M 166 16 L 196 16 M 196 46 L 166 46 M 196 16 L 226 16 M 226 46 L 196 46 M 226 16 L 256 16 L 256 46 M 256 16 L 316 16 L 316 46 M 316 16 L 376 16 L 376 46 M 376 16 L 436 16 M 436 46 L 406 46 M 436 16 L 466 16 M 466 46 L 436 46 M 466 16 L 496 16 L 496 46 M 16 76 L 16 46 M 46 46 L 46 76 M 76 46 L 76 76 M 106 46 L 106 76 M 166 76 L 136 76 M 196 46 L 196 76 M 226 76 L 196 76 M 256 76 L 226 76 M 286 46 L 286 76 L 256 76 M 316 76 L 286 76 M 346 46 L 346 76 L 316 76 M 376 46 L 376 76 M 406 46 L 406 76 L 376 76 M 466 76 L 436 76 M 496 46 L 496 76 M 16 106 L 16 76 M 46 76 L 46 106 M 76 106 L 46 106 M 106 76 L 106 106 L 76 106 M 136 76 L 136 106 M 166 76 L 166 106 M 196 106 L 166 106 M 226 76 L 226 106 M 256 76 L 256 106 M 346 76 L 346 106 M 376 106 L 346 106 M 406 106 L 376 106 M 436 76 L 436 106 L 406 106 M 466 76 L 466 106 M 496 76 L 496 106 M 16 136 L 16 106 M 46 106 L 46 136 M 106 136 L 76 136 M 136 136 L 106 136 M 166 136 L 136 136 M 196 106 L 196 136 L 166 136 M 226 106 L 226 136 M 256 106 L 256 136 M 286 106 L 286 136 M 316 106 L 316 136 M 346 136 L 316 136 M 376 106 L 376 136 L 346 136 M 466 106 L 466 136 L 436 136 M 496 106 L 496 136 M 16 166 L 16 136 M 46 136 L 46 166 M 106 136 L 106 166 L 76 166 M 166 166 L 136 166 M 196 136 L 196 166 M 226 136 L 226 166 M 256 166 L 226 166 M 286 136 L 286 166 L 256 166 M 316 166 L 286 166 M 346 166 L 316 166 M 376 166 L 346 166 M 406 136 L 406 166 L 376 166 M 436 166 L 406 166 M 466 136 L 466 166 M 496 136 L 496 166 M 16 196 L 16 166 M 46 166 L 46 196 M 76 166 L 76 196 M 136 166 L 136 196 L 106 196 M 196 196 L 166 196 M 226 166 L 226 196 L 196 196 M 286 196 L 256 196 M 316 166 L 316 196 M 376 166 L 376 196 M 436 196 L 406 196 M 466 166 L 466 196 M 496 166 L 496 196 M 16 226 L 16 196 M 46 196 L 46 226 M 76 196 L 76 226 M 106 196 L 106 226 M 136 226 L 106 226 M 166 196 L 166 226 M 226 226 L 196 226 M 256 196 L 256 226 L 226 226 M 286 196 L 286 226 M 316 196 L 316 226 M 346 196 L 346 226 M 376 226 L 346 226 M 406 196 L 406 226 L 376 226 M 466 196 L 466 226 L 436 226 M 496 196 L 496 226 M 16 256 L 16 226 M 46 226 L 46 256 M 76 226 L 76 256 M 106 256 L 76 256 M 136 226 L 136 256 M 166 226 L 166 256 L 136 256 M 196 256 L 166 256 M 226 226 L 226 256 M 286 226 L 286 256 L 256 256 M 316 226 L 316 256 M 376 256 L 346 256 M 406 226 L 406 256 M 436 226 L 436 256 L 406 256 M 496 226 L 496 256 L 466 256 M 46 286 L 16 286 L 16 256 M 76 286 L 46 286 M 106 256 L 106 286 L 76 286 M 136 286 L 106 286 M 166 286 L 136 286 M 196 286 L 166 286 M 226 256 L 226 286 L 196 286 M 286 286 L 256 286 M 316 256 L 316 286 L 286 286 M 346 286 L 316 286 M 376 256 L 376 286 M 406 286 L 376 286 M 436 286 L 406 286 M 466 286 L 436 286 M 496 256 L 496 286 L 466 286 "/>
<path style="fill:none;stroke-width:2.5;stroke-linecap:round;stroke-linejoin:round;stroke:rgb(0%,0%,0%);stroke-opacity:1;stroke-miterlimit:10;" d="M 356.5 286 L 361 278.5 L 365.5 286 M 361 278.5 L 361 293.5 "/>
<path style="fill:none;stroke-width:2.5;stroke-linecap:round;stroke-linejoin:round;stroke:rgb(0%,0%,0%);stroke-opacity:1;stroke-miterlimit:10;" d="M 245.5 286 L 241 293.5 L 236.5 286 M 241 278.5 L 241 293.5 "/>
</g>
</svg>
